<svg width="71" height="72" viewBox="0 0 71 72" fill="none" xmlns="http://www.w3.org/2000/svg">
<path d="M16.1364 0C7.26293 0 0 7.36522 0 16.3636V55.6364C0 64.6348 7.26293 72 16.1364 72H54.8636C63.7371 72 71 64.6348 71 55.6364V16.3636C71 7.36522 63.7371 0 54.8636 0H16.1364ZM16.1364 6.54545H54.8636C60.2483 6.54545 64.5455 10.9031 64.5455 16.3636V50.6058C62.6814 49.7285 60.4941 49.0909 57.7694 49.0909H36.9308C36.9328 48.3422 36.915 47.5909 36.9561 46.8537C37.0335 45.6984 37.1517 44.5428 37.4099 43.4595C37.5768 42.7676 37.8319 42.0977 38.1537 41.5866C40.0265 42.6283 43.8566 43.6707 47.722 41.7976C52.4597 39.5001 54.0379 32.4077 54.0379 32.4077C50.4072 35.3433 47.3055 34.4345 43.8329 34.2741C40.5727 34.1237 37.5494 35.8089 37.183 40.0653C36.4426 40.7357 36.0482 41.5653 35.7143 42.3665C35.6698 42.2234 35.6433 42.0813 35.5946 41.9382C35.3428 41.2608 35.078 40.5891 34.6617 39.9247C34.4449 39.5589 34.1563 39.2028 33.8107 38.8764C33.5516 34.9718 31.9102 33.0378 29.2724 31.679C26.242 30.1179 21.3489 29.3151 16.9243 30.3558C20.1386 31.3606 21.2145 36.7811 23.7318 38.9084C25.9669 40.7972 29.3542 41.2377 32.6068 40.8771C32.9027 41.3756 33.1539 41.9989 33.3254 42.6541C33.6287 43.8061 33.786 45.0476 33.899 46.2912C34.0894 48.785 34.0671 51.3882 33.8864 53.8722H33.899C33.8981 53.9131 33.8935 53.9526 33.8927 53.9936L33.8864 54V55.6364H29.0455V49.0909H13.2306C10.2798 49.0909 8.06779 49.7991 6.45455 50.5547V16.3636C6.45455 10.9031 10.7517 6.54545 16.1364 6.54545Z" fill="#75F94C"/>
</svg>
