<svg width="24" height="24" viewBox="0 0 24 24" fill="none" xmlns="http://www.w3.org/2000/svg">
<path d="M5.45455 0C2.45507 0 0 2.45507 0 5.45455V18.5455C0 21.5449 2.45507 24 5.45455 24H18.5455C21.5449 24 24 21.5449 24 18.5455V5.45455C24 2.45507 21.5449 0 18.5455 0H5.45455ZM5.45455 2.18182H18.5455C20.3656 2.18182 21.8182 3.63438 21.8182 5.45455V16.8686C21.1881 16.5762 20.4487 16.3636 19.5277 16.3636H12.4837C12.4843 16.1141 12.4783 15.8636 12.4922 15.6179C12.5184 15.2328 12.5583 14.8476 12.6456 14.4865C12.702 14.2559 12.7883 14.0326 12.897 13.8622C13.5301 14.2094 14.8248 14.5569 16.1314 13.9325C17.7328 13.1667 18.2663 10.8026 18.2663 10.8026C17.0391 11.7811 15.9906 11.4782 14.8168 11.4247C13.7147 11.3746 12.6928 11.9363 12.5689 13.3551C12.3186 13.5786 12.1853 13.8551 12.0724 14.1222C12.0574 14.0745 12.0484 14.0271 12.032 13.9794C11.9469 13.7536 11.8573 13.5297 11.7166 13.3082C11.6433 13.1863 11.5458 13.0676 11.429 12.9588C11.3414 11.6573 10.7865 11.0126 9.89489 10.5597C8.87052 10.0393 7.21652 9.7717 5.72088 10.1186C6.80743 10.4535 7.17111 12.2604 8.02202 12.9695C8.77755 13.5991 9.92254 13.7459 11.022 13.6257C11.122 13.7919 11.207 13.9996 11.2649 14.218C11.3675 14.602 11.4206 15.0159 11.4588 15.4304C11.5232 16.2617 11.5156 17.1294 11.4545 17.9574H11.4588C11.4585 17.9711 11.4569 17.9842 11.4567 17.9979L11.4545 18V18.5455H9.81818V16.3636H4.4723C3.47487 16.3636 2.72714 16.5997 2.18182 16.8516V5.45455C2.18182 3.63438 3.63438 2.18182 5.45455 2.18182Z" fill="#E1E1E1"/>
</svg>
