<svg width="10" height="10" viewBox="0 0 10 10" fill="none" xmlns="http://www.w3.org/2000/svg">
<path d="M2.27273 0C1.02295 0 0 1.02295 0 2.27273V7.72727C0 8.97705 1.02295 10 2.27273 10H7.72727C8.97705 10 10 8.97705 10 7.72727V2.27273C10 1.02295 8.97705 0 7.72727 0H2.27273ZM2.27273 0.909091H7.72727C8.48567 0.909091 9.09091 1.51433 9.09091 2.27273V7.02859C8.82836 6.90673 8.5203 6.81818 8.13654 6.81818H5.20153C5.20181 6.7142 5.19929 6.60985 5.20508 6.50746C5.21599 6.347 5.23264 6.1865 5.269 6.03604C5.2925 5.93995 5.32844 5.8469 5.37376 5.77592C5.63753 5.92059 6.17698 6.06538 6.72141 5.80522C7.38869 5.48613 7.61097 4.50107 7.61097 4.50107C7.09961 4.90879 6.66274 4.78257 6.17365 4.7603C5.71446 4.73941 5.28865 4.97346 5.23704 5.56463C5.13275 5.65773 5.07721 5.77295 5.03018 5.88423C5.02392 5.86436 5.02018 5.84462 5.01332 5.82475C4.97786 5.73066 4.94056 5.63737 4.88192 5.5451C4.85139 5.4943 4.81074 5.44483 4.76207 5.3995C4.72557 4.85719 4.49439 4.58859 4.12287 4.39986C3.69605 4.18304 3.00688 4.07154 2.3837 4.21609C2.83643 4.35563 2.98796 5.10849 3.34251 5.40394C3.65731 5.66628 4.13439 5.72746 4.59251 5.67738C4.63418 5.74661 4.66957 5.83317 4.69371 5.92418C4.73644 6.08418 4.75859 6.25661 4.7745 6.42933C4.80132 6.7757 4.79818 7.13724 4.77273 7.48224H4.7745C4.77438 7.48794 4.77373 7.49341 4.77362 7.49911L4.77273 7.5V7.72727H4.09091V6.81818H1.86346C1.44786 6.81818 1.13631 6.91655 0.909091 7.02148V2.27273C0.909091 1.51433 1.51433 0.909091 2.27273 0.909091Z" fill="#F99F4C"/>
</svg>
